# xmcd
#
# Track frame offsets:
#	150
#	10395
#	27465
#	43862
#	61752
#	76822
#	90730
#	102695
#	117070
#	129075
#	143947
#
# Disc length: 2099 seconds
#
# Revision: 10
# Processed by: cddbd v1.5.2PL0 Copyright (c) Steve Scherf et al.
# Submitted via: EZCDAudioConverter 6.0.5.1
#
DISCID=8c08310b
DTITLE=Holly Dunn - Getting It Dunn
DYEAR=1992
DGENRE=Country
TTITLE0=No Love Have I
TTITLE1=If Your Heart Can't Do The Talking
TTITLE2=Golden Years
TTITLE3=You Say You Will
TTITLE4=I Laughed Until I Cried
TTITLE5=As Long As You Belong To Me
TTITLE6=Let Go
TTITLE7=I've Heard It All
TTITLE8=Half A Million Teardrops
TTITLE9=You Can Have Him
TTITLE10=A Simple I Love You
EXTD=
EXTT0=
EXTT1=
EXTT2=
EXTT3=
EXTT4=
EXTT5=
EXTT6=
EXTT7=
EXTT8=
EXTT9=
EXTT10=
PLAYORDER=
